D:\school\WTK\thesis\model\3dpredictsim\Results\batch_windlass\Pog_s1_tmt_bCst_d05_k1000_WL30_ig24_act_TTM_GRF.mot
nRows=25
nColumns=19

name D:\school\WTK\thesis\model\3dpredictsim\Results\batch_windlass\Pog_s1_tmt_bCst_d05_k1000_WL30_ig24_act_TTM_GRF.mot
datacolumns 19
datarows 25
range 0.0000000000 0.3447702146
endheader
time 	ground_force_vx	ground_force_vy	ground_force_vz	ground_force_px	ground_force_py	ground_force_pz	1_ground_force_vx	1_ground_force_vy	1_ground_force_vz	1_ground_force_px	1_ground_force_py	1_ground_force_pz	ground_torque_x	ground_torque_y	ground_torque_z	1_ground_torque_x	1_ground_torque_y	1_ground_torque_z
        0.0000000000	      -45.5064241742	       34.1030663501	        3.6752970962	        0.2559738846	        0.0000000000	        0.0563144120	      122.7920142759	      420.3006781609	        0.4218658224	       -0.4038098204	        0.0000000000	       -0.0496559990	        0.0000000000	        0.0000000000	        0.0000000000	        0.0000000000	        0.0000000000	        0.0000000000	
        0.0143654256	     -161.4884348831	      154.5686653304	        6.3423744378	        0.2661235394	        0.0000000000	        0.0552848396	       89.7688160524	      332.3103343613	       -3.2515405994	       -0.3946425568	        0.0000000000	       -0.0483717854	        0.0000000000	        0.0000000000	        0.0000000000	        0.0000000000	        0.0000000000	        0.0000000000	
        0.0287308512	     -120.0183506561	      433.6547751189	       -5.2829188416	        0.2727921686	        0.0000000000	        0.0548140994	       75.7339554583	      261.1962719000	      -10.9711967473	       -0.3861906662	        0.0000000000	       -0.0472902217	        0.0000000000	        0.0000000000	        0.0000000000	        0.0000000000	        0.0000000000	        0.0000000000	
        0.0430962768	     -153.7226251677	      669.7929732265	      -16.1894228390	        0.2796440463	        0.0000000000	        0.0558110856	       77.1441740920	      210.0667901582	      -18.8560068593	       -0.3854189816	        0.0000000000	       -0.0477945219	        0.0000000000	        0.0000000000	        0.0000000000	        0.0000000000	        0.0000000000	        0.0000000000	
        0.0574617024	     -211.9323766697	      863.1944339519	      -18.5814599406	        0.2917045944	        0.0000000000	        0.0586342774	       71.7389749212	      144.0998437180	      -30.1902742485	       -0.3848224978	        0.0000000000	       -0.0489748245	        0.0000000000	        0.0000000000	        0.0000000000	        0.0000000000	        0.0000000000	        0.0000000000	
        0.0718271281	     -216.2912022853	      890.1223020817	      -14.1261049453	        0.2989041740	        0.0000000000	        0.0600402953	       36.7040062605	       45.4122729086	      -23.1630937460	       -0.3831781848	        0.0000000000	       -0.0512699049	        0.0000000000	        0.0000000000	        0.0000000000	        0.0000000000	        0.0000000000	        0.0000000000	
        0.0861925537	     -195.1408354221	      847.6536377019	      -10.4722471769	        0.3043619690	        0.0000000000	        0.0605174756	       -0.0000000001	       -0.0000000001	        0.0000000001	        0.0000000000	        0.0000000000	        0.0000000000	        0.0000000000	        0.0000000000	        0.0000000000	        0.0000000000	        0.0000000000	        0.0000000000	
        0.1005579793	     -173.4985728460	      812.5298061585	      -10.8996213613	        0.3093961120	        0.0000000000	        0.0603820574	        0.0000000000	       -0.0000000000	       -0.0000000000	        0.0000000000	        0.0000000000	        0.0000000000	        0.0000000000	        0.0000000000	        0.0000000000	        0.0000000000	        0.0000000000	        0.0000000000	
        0.1149234049	     -154.0374867164	      778.4869743772	      -10.8386564541	        0.3144777299	        0.0000000000	        0.0599941334	        0.0000000000	       -0.0000000000	       -0.0000000000	        0.0000000000	        0.0000000000	        0.0000000000	        0.0000000000	        0.0000000000	        0.0000000000	        0.0000000000	        0.0000000000	        0.0000000000	
        0.1292888305	     -128.1817187356	      731.1328629169	       -8.3189346151	        0.3209815581	        0.0000000000	        0.0594186087	        0.0000000483	       -0.0000000320	       -0.0000000081	        0.0000000000	        0.0000000000	        0.0000000000	        0.0000000000	        0.0000000000	        0.0000000000	        0.0000000000	        0.0000000000	        0.0000000000	
        0.1436542561	     -108.4150550127	      683.9429796959	       -6.6749156664	        0.3263726171	        0.0000000000	        0.0590222302	        0.0000000002	       -0.0000000002	       -0.0000000000	        0.0000000000	        0.0000000000	        0.0000000000	        0.0000000000	        0.0000000000	        0.0000000000	        0.0000000000	        0.0000000000	        0.0000000000	
        0.1580196817	      -94.7748841538	      655.6105919124	       -7.5955119452	        0.3311018522	        0.0000000000	        0.0587510747	        0.0000000000	       -0.0000000000	        0.0000000000	        0.0000000000	        0.0000000000	        0.0000000000	        0.0000000000	        0.0000000000	        0.0000000000	        0.0000000000	        0.0000000000	        0.0000000000	
        0.1723851073	      -80.9542792756	      634.8296590973	      -10.7141573248	        0.3353970562	        0.0000000000	        0.0585799223	        0.0000000000	       -0.0000000000	        0.0000000000	        0.0000000000	        0.0000000000	        0.0000000000	        0.0000000000	        0.0000000000	        0.0000000000	        0.0000000000	        0.0000000000	        0.0000000000	
        0.1867505329	      -68.0749003154	      612.7313123818	      -11.8605964273	        0.3395717791	        0.0000000000	        0.0585649539	        0.0000000003	       -0.0000000002	        0.0000000000	        0.0000000000	        0.0000000000	        0.0000000000	        0.0000000000	        0.0000000000	        0.0000000000	        0.0000000000	        0.0000000000	        0.0000000000	
        0.2011159585	      -57.2687535040	      593.8034054612	      -13.1138483594	        0.3436028094	        0.0000000000	        0.0586413536	       -0.0000000032	        0.0000000017	       -0.0000000001	        0.0000000000	        0.0000000000	        0.0000000000	        0.0000000000	        0.0000000000	        0.0000000000	        0.0000000000	        0.0000000000	        0.0000000000	
        0.2154813842	      -48.2657331935	      579.7091273406	      -13.9434666720	        0.3476686764	        0.0000000000	        0.0587850779	       -0.0000000028	        0.0000000014	        0.0000000000	        0.0000000000	        0.0000000000	        0.0000000000	        0.0000000000	        0.0000000000	        0.0000000000	        0.0000000000	        0.0000000000	        0.0000000000	
        0.2298468098	      -40.9429228214	      570.8346053696	      -14.8332475893	        0.3518212112	        0.0000000000	        0.0589631555	       -0.0000000055	        0.0000000026	        0.0000000001	        0.0000000000	        0.0000000000	        0.0000000000	        0.0000000000	        0.0000000000	        0.0000000000	        0.0000000000	        0.0000000000	        0.0000000000	
        0.2442122354	      -34.3811065962	      565.2741532640	      -15.6620397711	        0.3559252153	        0.0000000000	        0.0591763534	       -0.0000000226	        0.0000000099	        0.0000000006	        0.0000000000	        0.0000000000	        0.0000000000	        0.0000000000	        0.0000000000	        0.0000000000	        0.0000000000	        0.0000000000	        0.0000000000	
        0.2585776610	      -29.3570611667	      563.8829132352	      -16.6772932237	        0.3602053695	        0.0000000000	        0.0593883055	       -0.0000001629	        0.0000000684	        0.0000000053	        0.0000000000	        0.0000000000	        0.0000000000	        0.0000000000	        0.0000000000	        0.0000000000	        0.0000000000	        0.0000000000	        0.0000000000	
        0.2729430866	      -25.4911321833	      567.8296940090	      -17.9863255225	        0.3649117814	        0.0000000000	        0.0595515706	       -0.0000016615	        0.0000006744	        0.0000000549	        0.0000000000	        0.0000000000	        0.0000000000	        0.0000000000	        0.0000000000	        0.0000000000	        0.0000000000	        0.0000000000	        0.0000000000	
        0.2873085122	      -21.2912778456	      574.5901530113	      -19.5720172548	        0.3701819250	        0.0000000000	        0.0596286015	       -0.0000195871	        0.0000077361	        0.0000006116	        0.0000000000	        0.0000000000	        0.0000000000	        0.0000000000	        0.0000000000	        0.0000000000	        0.0000000000	        0.0000000000	        0.0000000000	
        0.3016739378	      -17.4695076820	      580.7011123735	      -21.3228235083	        0.3758910699	        0.0000000000	        0.0596144089	       -0.0002296926	        0.0000888162	        0.0000065160	        0.0000000000	        0.0000000000	        0.0000000000	        0.0000000000	        0.0000000000	        0.0000000000	        0.0000000000	        0.0000000000	        0.0000000000	
        0.3160393634	      -14.0923552214	      585.4013225015	      -22.9244563588	        0.3817248631	        0.0000000000	        0.0595447335	       -0.0023239286	        0.0008834950	        0.0000584371	        0.0000000000	        0.0000000000	        0.0000000000	        0.0000000000	        0.0000000000	        0.0000000000	        0.0000000000	        0.0000000000	        0.0000000000	
        0.3304047890	      -10.5857492029	      588.6433445703	      -24.0690384897	        0.3876076275	        0.0000000000	        0.0594328465	       -0.0174995976	        0.0065680642	        0.0003916590	        0.0000000000	        0.0000000000	        0.0000000000	        0.0000000000	        0.0000000000	        0.0000000000	        0.0000000000	        0.0000000000	        0.0000000000	
        0.3447702146	       -7.2704148881	      588.6041925582	      -24.9989805524	        0.3934340622	        0.0000000000	        0.0592873663	       -0.0863544656	        0.0321012167	        0.0017612234	        0.0000000000	        0.0000000000	        0.0000000000	        0.0000000000	        0.0000000000	        0.0000000000	        0.0000000000	        0.0000000000	        0.0000000000	
